# xmcd
#
# Track frame offsets: 
#        150
#        13868
#        51779
#        84441
#        107384
#        112265
#        140393
#        177174
#        199171
#        214648
#
# Disc length: 3111 seconds
#
# Revision: 2
# Processed by: cddbd v1.5.2PL0 Copyright (c) Steve Scherf et al.
# Submitted via: ExactAudioCopy v1.0b3
#
DISCID=850c250a
DTITLE=Dotschy Reinhardt - Pani Sindhu
DYEAR=2012
DGENRE=Jazz
TTITLE0=Djas
TTITLE1=Pani Sindhu
TTITLE2=Djido Pani
TTITLE3=Panch Bat
TTITLE4=Intro Que Alegria
TTITLE5=Que Alegria
TTITLE6=Prabhujee
TTITLE7=Baro Raj - Baray Rani
TTITLE8=Main ne keha - Hi o kam bale wri
TTITLE9=Walkabout
EXTD=YEAR: 2012
EXTT0=
EXTT1=
EXTT2=
EXTT3=
EXTT4=
EXTT5=
EXTT6=
EXTT7=
EXTT8=
EXTT9=
PLAYORDER=
